C:\Users\lingh\OneDrive - KTH\ExMaterials\7-Doctor\Research\2-simulation\PredSimResults\Falisse_et_al_20220.2weak\Falisse_et_al_2022_v1.mot
version=1
nRows=4
nColumns=124
inDegrees=yes
endheader
                time	         pelvis_tilt	         pelvis_list	     pelvis_rotation	           pelvis_tx	           pelvis_ty	           pelvis_tz	       hip_flexion_r	     hip_adduction_r	      hip_rotation_r	        knee_angle_r	       ankle_angle_r	    subtalar_angle_r	         mtp_angle_r	       hip_flexion_l	     hip_adduction_l	      hip_rotation_l	        knee_angle_l	       ankle_angle_l	    subtalar_angle_l	         mtp_angle_l	    lumbar_extension	      lumbar_bending	     lumbar_rotation	          arm_flex_r	           arm_add_r	           arm_rot_r	        elbow_flex_r	          arm_flex_l	           arm_add_l	           arm_rot_l	        elbow_flex_l	glut_med1_r/activation	glut_med2_r/activation	glut_med3_r/activation	glut_min1_r/activation	glut_min2_r/activation	glut_min3_r/activation	semimem_r/activation	semiten_r/activation	bifemlh_r/activation	bifemsh_r/activation	    sar_r/activation	add_long_r/activation	add_brev_r/activation	add_mag1_r/activation	add_mag2_r/activation	add_mag3_r/activation	    tfl_r/activation	   pect_r/activation	   grac_r/activation	glut_max1_r/activation	glut_max2_r/activation	glut_max3_r/activation	iliacus_r/activation	  psoas_r/activation	quad_fem_r/activation	    gem_r/activation	   peri_r/activation	rect_fem_r/activation	vas_med_r/activation	vas_int_r/activation	vas_lat_r/activation	med_gas_r/activation	lat_gas_r/activation	 soleus_r/activation	tib_post_r/activation	flex_dig_r/activation	flex_hal_r/activation	tib_ant_r/activation	per_brev_r/activation	per_long_r/activation	per_tert_r/activation	ext_dig_r/activation	ext_hal_r/activation	glut_med1_l/activation	glut_med2_l/activation	glut_med3_l/activation	glut_min1_l/activation	glut_min2_l/activation	glut_min3_l/activation	semimem_l/activation	semiten_l/activation	bifemlh_l/activation	bifemsh_l/activation	    sar_l/activation	add_long_l/activation	add_brev_l/activation	add_mag1_l/activation	add_mag2_l/activation	add_mag3_l/activation	    tfl_l/activation	   pect_l/activation	   grac_l/activation	glut_max1_l/activation	glut_max2_l/activation	glut_max3_l/activation	iliacus_l/activation	  psoas_l/activation	quad_fem_l/activation	    gem_l/activation	   peri_l/activation	rect_fem_l/activation	vas_med_l/activation	vas_int_l/activation	vas_lat_l/activation	med_gas_l/activation	lat_gas_l/activation	 soleus_l/activation	tib_post_l/activation	flex_dig_l/activation	flex_hal_l/activation	tib_ant_l/activation	per_brev_l/activation	per_long_l/activation	per_tert_l/activation	ext_dig_l/activation	ext_hal_l/activation	 ercspn_r/activation	 ercspn_l/activation	 intobl_r/activation	 intobl_l/activation	 extobl_r/activation	 extobl_l/activation	
          1.70426765	         -7.24526897	          4.25904611	        -13.40698773	          2.25313721	          0.89744124	          0.01300231	        -11.71606224	         -5.45036232	          5.23090499	        -10.73875032	          3.40897430	          4.18710763	         35.97713366	         34.66306318	         -1.54185222	         -7.56386621	        -11.33010444	         13.07811480	         -3.75316691	          0.30912943	          2.49089808	         -0.17114418	          1.42545290	          1.86170336	        -13.46223445	         17.51572235	         95.98494873	        -19.68256340	        -13.58339388	         19.17973574	         10.06622407	          0.06511166	          0.08704492	          0.10008054	          0.05004344	          0.06061117	          0.07848073	          0.05002148	          0.05000998	          0.05000827	          0.05002247	          0.05098003	          0.27620359	          0.08945977	          0.08929408	          0.05028317	          0.05001769	          0.07219470	          0.07610924	          0.08417290	          0.05032799	          0.07088151	          0.08420144	          0.10065876	          0.37097756	          0.20721990	          0.10018939	          0.10000956	          0.31351377	          0.10678135	          0.10985477	          0.09497838	          0.48841938	          0.73883979	          0.14971614	          0.63217806	          0.62220478	          0.63240246	          0.05000096	          0.05118942	          0.10087991	          0.05000404	          0.05000130	          0.05000527	          0.06079187	          0.05533031	          0.05005378	          0.09989650	          0.05948708	          0.05056539	          0.19290841	          0.05947697	          0.13711363	          0.06387264	          0.05061731	          0.08412558	          0.07357388	          0.08410126	          0.17653720	          0.32404213	          0.05010071	          0.05118086	          0.12512797	          0.05006891	          0.16335919	          0.31441089	          0.08412337	          0.08412649	          0.05948614	          0.05947912	          0.05002653	          0.07072635	          0.05003066	          0.05005029	          0.07072255	          0.05000048	          0.05000097	          0.05000015	          0.05000390	          0.05001213	          0.05000572	          0.62850404	          0.32640751	          0.18606521	          0.48231535	          0.65357649	          0.30714003	          0.06495681	          0.14472627	          0.05000086	          0.13590573	          0.05000103	          0.07070919	
          1.71562943	         -7.25792718	          3.94151457	        -13.56629278	          2.27118858	          0.89539918	          0.01372247	        -12.61013961	         -5.37208057	          4.61279479	        -11.09094878	          2.07905912	          4.42147704	         37.05311710	         34.41914339	         -1.70971988	         -7.20204110	        -12.70240906	         12.42482157	         -4.09815212	          0.30478273	          2.61327756	         -0.42047167	          1.36602858	          2.02509922	        -13.48381538	         18.01468991	         98.91436066	        -21.40665481	        -13.58639309	         19.14911676	         10.46453450	          0.05475309	          0.07319180	          0.08414836	          0.05003824	          0.05101039	          0.06600732	          0.05003156	          0.05003513	          0.05004201	          0.05001830	          0.05030485	          0.35500304	          0.14845041	          0.09682584	          0.06116726	          0.05009564	          0.06073185	          0.07070557	          0.07078206	          0.05030837	          0.05962416	          0.07080237	          0.08470425	          0.33284532	          0.17422805	          0.08423996	          0.08409082	          0.26359833	          0.10560085	          0.10870888	          0.09508271	          0.42761587	          0.66369566	          0.14336906	          0.60370239	          0.58586164	          0.59830895	          0.05000121	          0.05000650	          0.08481934	          0.05000408	          0.05000147	          0.05000611	          0.05113473	          0.05000832	          0.05000612	          0.08402221	          0.05005894	          0.05002017	          0.17104780	          0.05000884	          0.12914279	          0.05370405	          0.05008475	          0.07073551	          0.07074018	          0.07072617	          0.14843564	          0.34776309	          0.05907977	          0.05986630	          0.10521021	          0.05000958	          0.25924897	          0.36033111	          0.07073133	          0.07073327	          0.05001763	          0.05001659	          0.19148264	          0.05947076	          0.05947548	          0.05947387	          0.05947382	          0.06671049	          0.07073156	          0.06623366	          0.06292372	          0.05949120	          0.05952062	          0.52843801	          0.27444228	          0.15644260	          0.40552635	          0.54998336	          0.25824059	          0.09215766	          0.12740639	          0.05000165	          0.13428226	          0.05000128	          0.05945261	
          1.72699122	         -7.26552064	          3.60189294	        -13.67232749	          2.28937842	          0.89342471	          0.01439062	        -13.30317906	         -5.25452611	          3.97358675	        -11.84362959	          0.81515804	          4.68814993	         37.83832710	         34.08743020	         -1.86232360	         -6.82771133	        -14.24378792	         11.94314628	         -4.41873548	          0.28344628	          2.75160796	         -0.66942756	          1.29669598	          2.15743631	        -13.50511546	         18.44195796	        101.58876657	        -23.05502246	        -13.57940849	         19.16918628	         10.86400884	          0.18375004	          0.06154282	          0.07075209	          0.14148383	          0.05020173	          0.05551308	          0.05017886	          0.05001437	          0.05000702	          0.05007045	          0.05012226	          0.40931990	          0.19770941	          0.08142242	          0.05148582	          0.10342746	          0.05112695	          0.05955905	          0.05951737	          0.05014712	          0.05014537	          0.05953302	          0.09955333	          0.39686169	          0.14648883	          0.07082943	          0.07070576	          0.22163015	          0.12158589	          0.15189187	          0.12847450	          0.35953603	          0.58491631	          0.13604926	          0.58595158	          0.57586634	          0.58199928	          0.05000160	          0.05000657	          0.07131620	          0.05000548	          0.05000183	          0.05000809	          0.33263566	          0.38277006	          0.45938501	          0.07078804	          0.19323004	          0.27910218	          0.14381590	          0.12127858	          0.10917533	          0.07534758	          0.05030949	          0.05947398	          0.05947802	          0.05946705	          0.12480590	          0.37759713	          0.05013837	          0.05034009	          0.08846383	          0.29045469	          0.35574764	          0.41642484	          0.05947045	          0.05947208	          0.05935350	          0.05569000	          0.16107574	          0.05000290	          0.05000700	          0.05000562	          0.05000547	          0.05608960	          0.05947076	          0.05568846	          0.05290581	          0.05002155	          0.05004613	          0.73167335	          0.37235133	          0.19911966	          0.66167250	          0.70326206	          0.45274552	          0.12609413	          0.10712419	          0.05000059	          0.15641595	          0.05000154	          0.05000177	
          1.73835300	         -7.27050847	          3.24980876	        -13.71138191	          2.30745054	          0.89174272	          0.01497143	        -13.76059584	         -5.10693739	          3.31399732	        -13.00531611	         -0.38864504	          4.98172351	         38.19943068	         33.78589237	         -2.00580691	         -6.47860035	        -15.81356232	         11.40950034	         -4.72162767	          0.25472308	          2.88354506	         -0.92872843	          1.22035089	          2.27427593	        -13.51643020	         18.78631626	        103.95783131	        -24.54823039	        -13.56636562	         19.23795821	         11.20765774	          0.15452526	          0.05175146	          0.05948910	          0.11904571	          0.05017896	          0.05003635	          0.05038918	          0.05002776	          0.05001109	          0.05001323	          0.05009186	          0.45027700	          0.28550214	          0.06848254	          0.10138951	          0.15741312	          0.05009300	          0.05014352	          0.05005074	          0.05015757	          0.05003907	          0.05006385	          0.08371265	          0.42987847	          0.12316611	          0.05955432	          0.05945301	          0.18634384	          0.14258959	          0.14944544	          0.13558004	          0.30229358	          0.50033119	          0.13493389	          0.55479078	          0.53355934	          0.54599884	          0.05000159	          0.05001369	          0.05998774	          0.05000575	          0.05000196	          0.05000791	          0.49079556	          0.46000169	          0.52756721	          0.29124241	          0.29373178	          0.35142697	          0.12092023	          0.11278903	          0.10503200	          0.06335247	          0.05003612	          0.05000653	          0.05001130	          0.05001223	          0.10495212	          0.40058751	          0.05010040	          0.05002017	          0.07438373	          0.31925161	          0.43671333	          0.47014951	          0.05000307	          0.05000421	          0.05001110	          0.05004593	          0.25277008	          0.05000195	          0.13432830	          0.15393514	          0.14517570	          0.05000113	          0.05000455	          0.05000051	          0.05000349	          0.05001226	          0.05000999	          0.78513754	          0.35499603	          0.17677523	          0.69652821	          0.70858460	          0.46307807	          0.14705409	          0.10331619	          0.05000073	          0.13522253	          0.05000186	          0.05000198	
